HIERARCHY
ROOT Hips
{
	OFFSET -0.001795 -0.223333 0.028219
	CHANNELS 6 Xposition Yposition Zposition Zrotation Yrotation Xrotation 
	JOINT LeftUpLeg
	{
		OFFSET 0.069520 -0.091406 -0.006815
		CHANNELS 3 Zrotation Yrotation Xrotation
		JOINT LeftLeg
		{
			OFFSET 0.034277 -0.375199 -0.004496
			CHANNELS 3 Zrotation Yrotation Xrotation
			JOINT LeftFoot
			{
				OFFSET -0.013596 -0.397961 -0.043693
				CHANNELS 3 Zrotation Yrotation Xrotation
				JOINT LeftToe
				{
					OFFSET 0.026358 -0.055791 0.119288
					CHANNELS 3 Zrotation Yrotation Xrotation
					End Site
					{
						OFFSET 0.000000 0.000000 0.000000
					}
				}
			}
		}
	}
	JOINT RightUpLeg
	{
		OFFSET -0.067670 -0.090522 -0.004320
		CHANNELS 3 Zrotation Yrotation Xrotation
		JOINT RightLeg
		{
			OFFSET -0.038290 -0.382569 -0.008850
			CHANNELS 3 Zrotation Yrotation Xrotation
			JOINT RightFoot
			{
				OFFSET 0.015774 -0.398415 -0.042312
				CHANNELS 3 Zrotation Yrotation Xrotation
				JOINT RightToe
				{
					OFFSET -0.025372 -0.048144 0.123348
					CHANNELS 3 Zrotation Yrotation Xrotation
					End Site
					{
						OFFSET 0.000000 0.000000 0.000000
					}
				}
			}
		}
	}
	JOINT Spine
	{
		OFFSET -0.002533 0.108963 -0.026696
		CHANNELS 3 Zrotation Yrotation Xrotation
		JOINT Spine1
		{
			OFFSET 0.005487 0.135180 0.001092
			CHANNELS 3 Zrotation Yrotation Xrotation
			JOINT Spine2
			{
				OFFSET 0.001457 0.052922 0.025425
				CHANNELS 3 Zrotation Yrotation Xrotation
				JOINT Neck
				{
					OFFSET -0.002778 0.213870 -0.042857
					CHANNELS 3 Zrotation Yrotation Xrotation
					JOINT Head
					{
						OFFSET 0.005152 0.064970 0.051349
						CHANNELS 3 Zrotation Yrotation Xrotation
						End Site
						{
							OFFSET 0.000000 0.000000 0.000000
						}
					}
				}
				JOINT LeftShoulder
				{
					OFFSET 0.078845 0.121749 -0.034090
					CHANNELS 3 Zrotation Yrotation Xrotation
					JOINT LeftArm
					{
						OFFSET 0.090977 0.030469 -0.008868
						CHANNELS 3 Zrotation Yrotation Xrotation
						JOINT LeftForeArm
						{
							OFFSET 0.259612 -0.012772 -0.027456
							CHANNELS 3 Zrotation Yrotation Xrotation
							JOINT LeftHand
							{
								OFFSET 0.249234 0.008986 -0.001171
								CHANNELS 3 Zrotation Yrotation Xrotation
								End Site
								{
									OFFSET 0.000000 0.000000 0.000000
								}
							}
						}
					}
				}
				JOINT RightShoulder
				{
					OFFSET -0.081759 0.118833 -0.038615
					CHANNELS 3 Zrotation Yrotation Xrotation
					JOINT RightArm
					{
						OFFSET -0.096012 0.032551 -0.009143
						CHANNELS 3 Zrotation Yrotation Xrotation
						JOINT RightForeArm
						{
							OFFSET -0.253742 -0.013329 -0.021401
							CHANNELS 3 Zrotation Yrotation Xrotation
							JOINT RightHand
							{
								OFFSET -0.255298 0.007772 -0.005559
								CHANNELS 3 Zrotation Yrotation Xrotation
								End Site
								{
									OFFSET 0.000000 0.000000 0.000000
								}
							}
						}
					}
				}
			}
		}
	}
}
MOTION
Frames: 13
Frame Time: 0.050000
-0.070745 0.912125 0.014939 0.135852 -7.064597 6.999489 13.046486 0.524247 -18.991412 -7.500694 1.489357 11.898627 8.593173 17.731919 10.689615 0.000000 0.000000 0.000000 -14.262716 0.566575 -22.544483 9.782964 -1.331015 13.379038 -5.975671 -16.890913 11.623343 0.000000 0.000000 0.000000 4.738399 -2.527469 40.982468 -4.556569 1.550700 -24.971372 -6.063654 6.082498 22.927386 16.541405 -1.621533 -51.844652 0.000000 0.000000 0.000000 -10.157517 -34.439890 14.568972 -34.698404 -45.553674 7.238941 50.396111 -53.242398 -23.372283 0.000000 0.000000 0.000000 22.561086 18.944304 10.796679 48.791288 52.403171 16.102172 -32.931364 53.090435 -12.300871 0.000000 0.000000 0.000000 
-0.070961 0.911972 0.014348 0.151117 -7.314068 7.133172 13.031515 0.539551 -19.094554 -7.464927 1.487644 11.836409 8.619249 17.757721 10.531999 0.000000 0.000000 0.000000 -14.177963 0.600917 -22.811229 9.678425 -1.304158 13.572804 -5.976811 -16.898397 11.416256 0.000000 0.000000 0.000000 4.717478 -2.484482 41.065912 -4.656427 1.566318 -25.015287 -6.006600 6.160576 22.964208 16.524166 -1.688408 -51.490443 0.000000 0.000000 0.000000 -9.883652 -34.245015 14.416940 -35.416876 -45.802337 7.542987 51.007501 -53.623499 -23.864131 0.000000 0.000000 0.000000 22.428203 18.894225 10.737288 49.357030 52.440642 16.387694 -32.604606 54.420633 -12.489464 0.000000 0.000000 0.000000 
-0.070974 0.911603 0.013967 0.238573 -7.439620 7.318556 13.020975 0.554210 -19.379472 -7.593022 1.528659 11.933830 8.623465 17.755536 10.532618 0.000000 0.000000 0.000000 -14.291054 0.602272 -23.171130 9.785086 -1.327662 13.814393 -6.031807 -16.998875 11.264619 0.000000 0.000000 0.000000 4.775691 -2.491023 41.114312 -4.797851 1.595665 -25.015539 -6.089314 6.154327 22.948991 16.464023 -1.696244 -51.336708 0.000000 0.000000 0.000000 -9.715293 -34.094205 14.320656 -35.775762 -45.934661 7.704863 51.601995 -54.149683 -24.435404 0.000000 0.000000 0.000000 22.135724 19.004169 10.739734 49.850777 52.639457 16.741763 -32.009440 55.664547 -12.520143 0.000000 0.000000 0.000000 
-0.070885 0.911259 0.013747 0.358255 -7.442879 7.465720 12.926356 0.546668 -19.666434 -7.711655 1.571321 12.174405 8.620169 17.755006 10.309726 0.000000 0.000000 0.000000 -14.433595 0.588381 -23.453012 9.754950 -1.328214 14.010200 -6.162233 -17.233063 11.192118 0.000000 0.000000 0.000000 4.845449 -2.526903 41.304762 -4.915615 1.619660 -25.156196 -6.179315 6.116363 22.958252 16.490797 -1.741211 -51.135953 0.000000 0.000000 0.000000 -9.613932 -34.019655 14.271593 -36.088391 -46.005526 7.829769 52.705833 -54.656470 -25.302482 0.000000 0.000000 0.000000 22.014984 19.063310 10.753657 49.945461 52.544462 16.735037 -31.536961 57.255972 -12.693830 0.000000 0.000000 0.000000 
-0.070780 0.910860 0.013822 0.502321 -7.326688 7.494767 12.979980 0.559658 -19.943682 -7.860650 1.616977 12.415647 8.433671 17.458022 10.390407 0.000000 0.000000 0.000000 -14.618854 0.554867 -23.543523 9.758899 -1.339053 14.127134 -6.157948 -17.204172 11.099328 0.000000 0.000000 0.000000 4.924255 -2.587652 41.576672 -5.070289 1.656535 -25.082048 -6.280168 5.912882 22.762301 16.335846 -1.702573 -51.057713 0.000000 0.000000 0.000000 -9.808800 -33.787425 14.240363 -36.138513 -45.778643 7.792362 53.677282 -55.771585 -26.451755 0.000000 0.000000 0.000000 21.875059 19.132645 10.729899 49.781392 52.126982 16.457195 -30.860363 59.025066 -12.836545 0.000000 0.000000 0.000000 
-0.070740 0.910620 0.014240 0.645905 -7.193843 7.427587 12.862080 0.530026 -19.956092 -7.874784 1.615039 12.432265 8.362672 17.353808 10.200353 0.000000 0.000000 0.000000 -14.752427 0.523876 -23.433474 9.743887 -1.347304 14.273146 -6.219549 -17.275912 10.903972 0.000000 0.000000 0.000000 4.891955 -2.612251 42.032826 -5.137491 1.672491 -25.181283 -6.334313 5.837989 22.646846 16.121427 -1.681569 -50.787263 0.000000 0.000000 0.000000 -10.105474 -33.665613 14.258019 -35.728115 -45.395087 7.537230 54.353669 -56.603320 -27.338753 0.000000 0.000000 0.000000 21.896193 19.037568 10.682978 49.251106 51.452272 15.859690 -30.032038 60.465929 -12.766594 0.000000 0.000000 0.000000 
-0.070759 0.910259 0.014868 0.725713 -7.048614 7.387078 12.763192 0.493170 -19.744990 -7.752224 1.562695 12.152777 8.162465 17.036231 9.872906 0.000000 0.000000 0.000000 -14.703808 0.517267 -23.328162 9.528259 -1.309919 14.294573 -6.233288 -17.279656 10.840801 0.000000 0.000000 0.000000 4.852568 -2.629318 42.267351 -5.157722 1.680263 -25.042704 -6.309758 5.774074 22.506731 15.838332 -1.672048 -50.324086 0.000000 0.000000 0.000000 -10.786425 -33.515014 14.363783 -35.151379 -44.600247 7.106227 55.055159 -57.646035 -28.389238 0.000000 0.000000 0.000000 21.848402 18.982722 10.643168 48.819604 50.680807 15.278231 -29.297171 61.665032 -12.675435 0.000000 0.000000 0.000000 
-0.070836 0.910226 0.015443 0.819177 -6.862982 7.291321 12.620136 0.449221 -19.532232 -7.509129 1.488644 12.005574 8.079537 16.912292 9.834961 0.000000 0.000000 0.000000 -14.612910 0.511420 -23.168071 9.409136 -1.296614 14.415903 -6.272428 -17.319845 10.747430 0.000000 0.000000 0.000000 4.852667 -2.667900 42.530709 -5.208042 1.698027 -24.957827 -6.339696 5.872053 22.476612 15.803855 -1.686306 -50.096446 0.000000 0.000000 0.000000 -11.137623 -33.468111 14.394310 -34.600683 -43.930881 6.718606 55.628503 -58.485553 -29.298531 0.000000 0.000000 0.000000 21.621142 18.730969 10.509863 48.384103 50.004919 14.747216 -29.311495 62.207318 -12.810223 0.000000 0.000000 0.000000 
-0.070901 0.910075 0.015870 0.877610 -6.683151 7.299661 12.456202 0.410597 -19.575322 -7.348851 1.439248 11.932651 7.895613 16.618706 9.611548 0.000000 0.000000 0.000000 -14.652774 0.491349 -23.223243 9.373404 -1.302496 14.577053 -6.278295 -17.311762 10.715819 0.000000 0.000000 0.000000 4.778596 -2.670283 42.580438 -5.222744 1.703558 -24.933690 -6.363205 5.925535 22.519855 15.836042 -1.661787 -50.237052 0.000000 0.000000 0.000000 -11.521807 -33.470081 14.471218 -34.056607 -43.282436 6.348856 55.575504 -58.893998 -29.551391 0.000000 0.000000 0.000000 21.811693 18.441760 10.419921 47.838988 49.249449 14.111743 -29.327411 62.343984 -12.834695 0.000000 0.000000 0.000000 
-0.070985 0.910315 0.016185 0.970427 -6.302510 7.325403 12.346976 0.365133 -19.571172 -7.330317 1.416024 11.858981 7.646494 16.231283 9.495747 0.000000 0.000000 0.000000 -14.741779 0.450087 -23.036249 9.368492 -1.319030 14.525427 -6.495251 -17.685111 10.845399 0.000000 0.000000 0.000000 4.808420 -2.756950 42.747757 -5.288744 1.722861 -24.982038 -6.409844 5.873788 22.464251 15.662648 -1.527478 -50.570715 0.000000 0.000000 0.000000 -11.816251 -33.575669 14.575143 -33.149375 -42.956386 5.991469 54.919024 -59.167482 -29.353547 0.000000 0.000000 0.000000 21.673331 18.171849 10.277650 47.135544 48.617368 13.510943 -29.951821 61.906727 -13.094659 0.000000 0.000000 0.000000 
-0.071086 0.910409 0.016676 0.950139 -6.150557 7.286951 12.333255 0.351284 -19.513361 -7.217750 1.393016 12.042833 7.453200 15.911479 9.204568 0.000000 0.000000 0.000000 -14.676684 0.445655 -22.982678 9.423234 -1.341212 14.635721 -6.555202 -17.764989 10.701959 0.000000 0.000000 0.000000 4.810188 -2.794489 42.961934 -5.380669 1.745700 -24.957909 -6.426637 5.745309 22.279543 15.422276 -1.441948 -50.602380 0.000000 0.000000 0.000000 -11.878777 -33.533637 14.577872 -32.548755 -42.806382 5.788046 53.928718 -59.303804 -28.824707 0.000000 0.000000 0.000000 21.686132 17.943261 10.128121 46.703209 48.205247 13.146191 -29.832290 61.324050 -12.905694 0.000000 0.000000 0.000000 
-0.071239 0.910439 0.017470 0.970034 -6.215260 7.145134 12.209846 0.322963 -19.111815 -7.111629 1.363781 11.904888 7.300006 15.639292 8.925343 0.000000 0.000000 0.000000 -14.666678 0.450115 -22.630060 9.457923 -1.339421 14.451316 -6.550256 -17.742483 10.586230 0.000000 0.000000 0.000000 4.778316 -2.773346 43.121133 -5.364360 1.742396 -24.982577 -6.544279 5.773876 22.169865 15.369487 -1.417817 -50.634203 0.000000 0.000000 0.000000 -11.893941 -33.765026 14.679515 -31.782484 -42.695483 5.548791 51.762454 -58.900975 -27.288280 0.000000 0.000000 0.000000 21.829949 17.903815 10.132902 46.338106 48.004913 12.900891 -29.400391 60.640137 -12.498198 0.000000 0.000000 0.000000 
-0.071480 0.910193 0.018439 1.003106 -6.179217 7.057218 12.116029 0.293424 -18.731007 -7.027166 1.336136 11.768541 7.336738 15.696604 8.682238 0.000000 0.000000 0.000000 -14.653727 0.447742 -22.386272 9.395178 -1.322566 14.282701 -6.597788 -17.803291 10.409133 0.000000 0.000000 0.000000 4.745353 -2.765631 43.151978 -5.420622 1.755884 -24.992303 -6.629985 5.607843 22.203454 15.478773 -1.488340 -50.509782 0.000000 0.000000 0.000000 -11.517608 -34.119439 14.774171 -31.215496 -43.020670 5.478792 49.870711 -58.185665 -25.741243 0.000000 0.000000 0.000000 21.744470 18.044418 10.154298 46.076408 48.203054 12.887764 -29.433937 59.778628 -12.341211 0.000000 0.000000 0.000000 
